<?xml version="1.0" encoding="utf-8"?>
<!-- Generator: Adobe Illustrator 23.0.1, SVG Export Plug-In . SVG Version: 6.00 Build 0)  -->
<svg version="1.1" id="Layer_1" xmlns="http://www.w3.org/2000/svg" xmlns:xlink="http://www.w3.org/1999/xlink" x="0px" y="0px"
	 viewBox="0 0 512 512" style="enable-background:new 0 0 512 512;" xml:space="preserve">
<style type="text/css">
	.st0{fill:#FFFFFF;}
</style>
<rect class="st0" width="512" height="512"/>
<path d="M510.9,251.9c-12.9-25.6-36.5-44.1-63.7-51.1c10.7-17,16.1-37.2,14.9-58.1c-0.2-3.2-1.9-6.1-4.5-7.8
	c-17.3-11.3-37.6-16.7-57.7-16c7.8-27.3,3.5-56.7-12.4-81c-1.7-2.7-4.6-4.3-7.8-4.5c-28.7-1.6-56.7,9.6-76.4,29.8
	c-2.4-4.5-5.1-8.8-8.2-13c-3.3-4.4-9.6-5.3-14-2c-4.4,3.3-5.3,9.6-2,14c7.7,10.4,12.8,22.4,14.7,35.1c-5.8,3.3-11.2,7.3-16.3,11.8
	c-5.1-4.4-10.8-8.2-17-11.4c-2.8-1.4-6.2-1.4-9,0c-6.2,3.1-11.9,7-17,11.4c-5.1-4.5-10.5-8.4-16.3-11.8c2-12.9,7.1-25.1,15-35.5
	c3.3-4.4,2.5-10.7-1.9-14c-4.4-3.3-10.7-2.5-14,1.9c-3.2,4.2-6,8.6-8.4,13.2c-19.7-20.3-47.3-31.3-76.2-29.6
	c-3.2,0.2-6.1,1.9-7.8,4.5c-15.8,24.1-20,53.9-12.3,81.1c-20.1-0.7-40.2,4.7-57.7,16.1c-2.7,1.7-4.3,4.6-4.5,7.8
	c-1.1,20.5,4.2,40.6,14.8,57.6c-27.6,6.9-50.9,25.3-64,51.3c-1.4,2.8-1.4,6.2,0,9c13,25.8,36.8,44.4,64.3,51.3
	c-10.8,17.1-16.3,37.4-15.1,58.2c0.2,3.2,1.9,6.1,4.5,7.8c16.4,10.7,35.2,16.2,54,16.2c1.1,0,2.1,0,3.2-0.1
	c-7.7,27.2-3.3,56.5,12.5,80.7c1.7,2.7,4.6,4.3,7.8,4.5c1.8,0.1,3.6,0.2,5.4,0.2c26.8,0,52.4-11,70.9-29.9
	c9.4,17.8,24.2,32.6,42.9,42c1.4,0.7,3,1.1,4.5,1.1c1.5,0,3.1-0.4,4.5-1.1c18.4-9.3,33.2-24.1,42.6-41.8
	c18.4,19,43.8,29.8,70.7,29.8c1.9,0,3.8-0.1,5.6-0.2c3.2-0.2,6.1-1.9,7.8-4.5c15.7-24.1,20-53.8,12.4-81c1.3,0,2.6,0.1,3.9,0.1
	c19,0,37.9-5.4,54.2-16.1c2.7-1.7,4.3-4.6,4.5-7.8c1.2-20.8-4.2-41-14.8-58c27.4-6.9,50.6-25.4,63.6-51.2
	C512.4,258.1,512.4,254.8,510.9,251.9z M388.2,292.2c-6.7-14.6-17.7-27.2-31.9-36c14.3-8.8,25.2-21.3,31.9-36
	c18.5,6.3,34.1,19,44,36C422.3,273.3,406.7,286,388.2,292.2z M344.1,408.9c-19.7-0.1-38.5-7.3-53.2-20.1
	c9.3-13.1,14.7-28.9,15.2-45.6c14.7,8,31.1,11.2,47.1,9.7C357.1,371.9,353.8,391.8,344.1,408.9z M167.9,408.9
	c-9.7-17.1-12.9-36.9-9.1-56.1c16,1.5,32.4-1.7,47.1-9.7c0.5,16.7,5.9,32.5,15.2,45.6C206.4,401.6,187.6,408.8,167.9,408.9z
	 M79.8,256.3c6-10.3,14.1-18.9,23.6-25.6c0.9-0.4,1.8-1,2.5-1.7c5.6-3.6,11.6-6.5,17.9-8.7c6.7,14.6,17.7,27.2,31.9,36
	c-14.3,8.8-25.2,21.3-31.9,36C105.3,286,89.7,273.3,79.8,256.3z M167.9,103.7c19.7,0.1,38.5,7.3,53.2,20.1
	c-9.3,13.1-14.7,28.9-15.2,45.6c-14.7-8-31.1-11.2-47.1-9.7C154.9,140.6,158.2,120.8,167.9,103.7z M344.1,103.7
	c9.7,17.1,12.9,36.9,9.1,56.1c-16-1.5-32.4,1.7-47.1,9.7c-0.5-16.7-5.9-32.5-15.2-45.6C305.6,110.9,324.4,103.8,344.1,103.7z
	 M314.1,187.9c13.5-7.8,29.1-10.2,43.8-7.3c0.5,0.1,1,0.3,1.5,0.3c5.6,1.3,11.1,3.3,16.4,6.2c-0.1,6-1.1,11.8-2.9,17.3
	c-0.2,0.4-0.3,0.9-0.4,1.4c-4.8,14.2-14.6,26.5-28.2,34.3c-4.7,2.7-9.7,4.8-14.9,6.2c-2.6-19.7-13.1-37-28.1-48.6
	C305.1,193.9,309.4,190.6,314.1,187.9z M310,256.3c0,29.8-24.2,54-54,54c-29.8,0-54-24.2-54-54c0-29.8,24.2-54,54-54
	C285.8,202.3,310,226.5,310,256.3z M152.6,181c0.5-0.1,1-0.2,1.5-0.3c14.7-2.9,30.2-0.6,43.8,7.3c4.7,2.7,9,6,12.9,9.9
	c-15,11.6-25.5,28.9-28.1,48.6c-5.2-1.4-10.2-3.5-14.9-6.2c-13.6-7.8-23.4-20.1-28.2-34.3c-0.1-0.5-0.3-0.9-0.4-1.4
	c-1.7-5.5-2.7-11.4-2.9-17.3C141.5,184.3,147,182.2,152.6,181z M139.1,308.2c0.2-0.5,0.4-1,0.5-1.5c4.8-14.2,14.6-26.5,28.2-34.3
	c4.7-2.7,9.7-4.8,14.9-6.2c2.6,19.7,13.1,37,28.1,48.6c-3.9,3.8-8.2,7.1-12.9,9.9c-13.6,7.8-29.1,10.2-43.8,7.3
	c-0.5-0.1-1-0.2-1.4-0.3c-5.7-1.3-11.2-3.3-16.4-6.2C136.4,319.5,137.4,313.7,139.1,308.2z M242.4,383.4c-0.3-0.4-0.6-0.7-1-1.1
	c-9.9-11.3-15.6-25.9-15.6-41.6c0-5.4,0.7-10.8,2.1-16.1c8.7,3.6,18.1,5.6,28.1,5.6c9.9,0,19.4-2,28.1-5.6
	c1.4,5.2,2.1,10.6,2.1,16.1c0,15.7-5.7,30.3-15.6,41.6c-0.3,0.3-0.7,0.7-0.9,1.1c-3.9,4.3-8.5,8-13.6,11.1
	C250.9,391.5,246.3,387.7,242.4,383.4z M359.3,331.6c-0.5,0.1-0.9,0.2-1.4,0.3c-14.7,3-30.3,0.6-43.8-7.3c-4.7-2.7-9-6-12.9-9.9
	c15-11.6,25.5-28.9,28.1-48.6c5.2,1.4,10.2,3.5,14.9,6.2c13.6,7.8,23.4,20.1,28.2,34.3c0.1,0.5,0.3,1,0.5,1.5
	c1.7,5.5,2.7,11.3,2.8,17.2C370.5,328.3,365,330.3,359.3,331.6z M442.3,149c-0.2,19.3-7.3,37.6-19.9,51.7c-0.4,0.4-0.8,0.8-1.2,1.3
	c-2.6,2.8-5.4,5.4-8.4,7.8c-5.8-3.4-12.1-6.2-18.5-8.4c1.3-6.6,1.7-13.5,1.3-20.4c-0.2-3.2-1.9-6.1-4.5-7.8c-5.8-3.8-12-6.8-18.3-9
	c1.3-6.6,2-13.2,2-19.8C396.7,135.6,421.7,137.3,442.3,149z M311.5,84.2c14.6-19.3,37.7-30.8,61.9-31c12,21.2,13.6,46.6,4.1,69.1
	c-1.6,0.4-3.2,0.9-4.8,1.4c-2.5-12.4-7.4-24.4-14.6-35.4c-1.7-2.7-4.6-4.3-7.8-4.5c-13-0.7-25.8,1-37.7,5
	C312.3,87.3,311.9,85.7,311.5,84.2z M256,118c5.1,3.1,9.7,6.9,13.6,11.1c0.3,0.4,0.6,0.7,1,1.1c9.9,11.3,15.6,25.9,15.6,41.6
	c0,5.4-0.7,10.8-2.1,16.1c-8.7-3.6-18.1-5.6-28.1-5.6c-9.9,0-19.4,2-28.1,5.6c-1.4-5.2-2.1-10.6-2.1-16.1c0-15.7,5.7-30.3,15.6-41.6
	c0.3-0.3,0.7-0.7,0.9-1.1C246.3,124.9,250.9,121.1,256,118z M138.9,53c24.3,0.2,47,11.5,61.7,30.8c-0.4,1.7-0.9,3.3-1.2,5
	c-12-4-24.8-5.7-37.7-5c-3.2,0.2-6.1,1.9-7.8,4.5c-7.1,10.9-12,22.8-14.6,35.2c-1.5-0.5-3-0.9-4.5-1.4
	C125.4,99.9,126.9,74.1,138.9,53z M137.2,144c0,6.7,0.7,13.4,2,20c-6.4,2.2-12.5,5.2-18.3,9c-2.7,1.7-4.3,4.6-4.5,7.8
	c-0.4,6.9,0.1,13.8,1.3,20.4c-6.4,2.1-12.5,4.9-18.3,8.2c-18.2-14.7-29.1-37-29.3-60.6C90.7,137.3,115.2,135.5,137.2,144z
	 M21.4,256.1c12.3-21,33.5-35,57.6-38.1c1.2,1.2,2.4,2.4,3.7,3.5c-9.4,8.4-17.4,18.6-23.2,30.2c-1.4,2.8-1.4,6.2,0,9
	c5.9,11.7,13.9,21.9,23.4,30.3c-1.1,1-2.2,2.1-3.3,3.1C55.4,291.3,33.8,277.1,21.4,256.1z M70.1,363.8c0.2-23.6,11.2-46,29.5-60.7
	c5.7,3.3,11.8,6,18.1,8.1c-1.3,6.6-1.7,13.5-1.3,20.4c0.2,3.2,1.9,6.1,4.5,7.8c5.8,3.8,12,6.8,18.3,9c-1.4,6.7-2,13.5-2,20.2
	C115.2,377.3,90.7,375.5,70.1,363.8z M138.5,459.4c-11.9-21.1-13.6-46.2-4.3-68.6c1.7-0.5,3.4-1,5.1-1.5c2.6,12.3,7.4,24.2,14.5,35
	c1.7,2.7,4.6,4.3,7.8,4.5c1.9,0.1,3.9,0.2,5.8,0.2c11,0,21.8-1.8,32-5.1c0.3,1.5,0.7,3.1,1.1,4.6
	C185.8,447.6,162.8,459.1,138.5,459.4z M256,471.1c-20.5-12-34.3-32.4-37.8-55.8c5.8-3.3,11.3-7.3,16.3-11.7
	c5.1,4.4,10.8,8.2,17,11.4c1.4,0.7,3,1.1,4.5,1.1s3.1-0.4,4.5-1.1c6.2-3.1,11.9-7,17-11.4c5.1,4.5,10.5,8.4,16.3,11.7
	C290.3,438.5,276.3,459.2,256,471.1z M373.2,459.5c-24.3-0.2-47-11.5-61.7-30.8c0.4-1.6,0.8-3.3,1.2-5c10.2,3.4,21,5.2,32,5.2
	c1.9,0,3.8-0.1,5.8-0.2c3.2-0.2,6.1-1.9,7.8-4.5c7.1-10.9,12-22.8,14.5-35.1c1.5,0.5,3,0.9,4.5,1.4
	C386.6,412.7,385.1,438.4,373.2,459.5z M374.8,368.6c0-6.7-0.7-13.4-2-20c6.4-2.2,12.5-5.2,18.3-9c2.7-1.7,4.3-4.6,4.5-7.8
	c0.4-6.9-0.1-13.8-1.3-20.4c6.4-2.2,12.6-4.9,18.4-8.3c18.6,14.8,29.4,37,29.6,60.8C421.7,375.4,396.7,377.2,374.8,368.6z
	 M433.2,294.5c-1.2-1.2-2.5-2.4-3.8-3.6c9.4-8.4,17.3-18.6,23.1-30.2c1.4-2.8,1.4-6.2,0-9c-5.8-11.5-13.7-21.7-23-30
	c1.2-1.1,2.4-2.2,3.6-3.3c23.9,3.1,45.3,17.3,57.5,38.1C478.3,277.4,457.3,291.4,433.2,294.5z"/>
<path d="M256,40c2.6,0,5.2-1.1,7.1-2.9c1.9-1.9,2.9-4.4,2.9-7.1c0-2.6-1.1-5.2-2.9-7.1c-1.9-1.9-4.4-2.9-7.1-2.9
	c-2.6,0-5.2,1.1-7.1,2.9c-1.9,1.9-2.9,4.4-2.9,7.1c0,2.6,1.1,5.2,2.9,7.1C250.8,38.9,253.4,40,256,40z"/>
</svg>
